<svg width="595" height="345" viewBox="0 0 595 345" fill="none" xmlns="http://www.w3.org/2000/svg">
<g clip-path="url(#clip0_13_176)">
<rect width="595" height="345" fill="#EFEFEF"/>
<circle cx="8" cy="345" r="5" fill="#D4D4D4"/>
<circle cx="18" cy="345" r="5" fill="#D4D4D4"/>
<circle cx="28" cy="345" r="5" fill="#D4D4D4"/>
<circle cx="38" cy="345" r="5" fill="#D4D4D4"/>
<circle cx="48" cy="345" r="5" fill="#D4D4D4"/>
<circle cx="58" cy="345" r="5" fill="#D4D4D4"/>
<circle cx="68" cy="345" r="5" fill="#D4D4D4"/>
<circle cx="78" cy="345" r="5" fill="#D4D4D4"/>
<circle cx="88" cy="345" r="5" fill="#D4D4D4"/>
<circle cx="98" cy="345" r="5" fill="#D4D4D4"/>
<circle cx="108" cy="345" r="5" fill="#D4D4D4"/>
<circle cx="118" cy="345" r="5" fill="#D4D4D4"/>
<circle cx="128" cy="345" r="5" fill="#D4D4D4"/>
<circle cx="138" cy="345" r="5" fill="#D4D4D4"/>
<circle cx="148" cy="345" r="5" fill="#D4D4D4"/>
<circle cx="158" cy="345" r="5" fill="#D4D4D4"/>
<circle cx="168" cy="345" r="5" fill="#D4D4D4"/>
<circle cx="178" cy="345" r="5" fill="#D4D4D4"/>
<circle cx="188" cy="345" r="5" fill="#D4D4D4"/>
<circle cx="198" cy="345" r="5" fill="#D4D4D4"/>
<circle cx="208" cy="345" r="5" fill="#D4D4D4"/>
<circle cx="218" cy="345" r="5" fill="#D4D4D4"/>
<circle cx="228" cy="345" r="5" fill="#D4D4D4"/>
<circle cx="238" cy="345" r="5" fill="#D4D4D4"/>
<circle cx="248" cy="345" r="5" fill="#D4D4D4"/>
<circle cx="258" cy="345" r="5" fill="#D4D4D4"/>
<circle cx="268" cy="345" r="5" fill="#D4D4D4"/>
<circle cx="278" cy="345" r="5" fill="#D4D4D4"/>
<circle cx="288" cy="345" r="5" fill="#D4D4D4"/>
<circle cx="298" cy="345" r="5" fill="#D4D4D4"/>
<circle cx="308" cy="345" r="5" fill="#D4D4D4"/>
<circle cx="318" cy="345" r="5" fill="#D4D4D4"/>
<circle cx="328" cy="345" r="5" fill="#D4D4D4"/>
<circle cx="338" cy="345" r="5" fill="#D4D4D4"/>
<circle cx="348" cy="345" r="5" fill="#D4D4D4"/>
<circle cx="358" cy="345" r="5" fill="#D4D4D4"/>
<circle cx="368" cy="345" r="5" fill="#D4D4D4"/>
<circle cx="378" cy="345" r="5" fill="#D4D4D4"/>
<circle cx="388" cy="345" r="5" fill="#D4D4D4"/>
<circle cx="398" cy="345" r="5" fill="#D4D4D4"/>
<circle cx="408" cy="345" r="5" fill="#D4D4D4"/>
<circle cx="418" cy="345" r="5" fill="#D4D4D4"/>
<circle cx="428" cy="345" r="5" fill="#D4D4D4"/>
<circle cx="438" cy="345" r="5" fill="#D4D4D4"/>
<circle cx="448" cy="345" r="5" fill="#D4D4D4"/>
<circle cx="458" cy="345" r="5" fill="#D4D4D4"/>
<circle cx="468" cy="345" r="5" fill="#D4D4D4"/>
<circle cx="478" cy="345" r="5" fill="#D4D4D4"/>
<circle cx="488" cy="345" r="5" fill="#D4D4D4"/>
<circle cx="498" cy="345" r="5" fill="#D4D4D4"/>
<circle cx="508" cy="345" r="5" fill="#D4D4D4"/>
<circle cx="518" cy="345" r="5" fill="#D4D4D4"/>
<circle cx="528" cy="345" r="5" fill="#D4D4D4"/>
<circle cx="538" cy="345" r="5" fill="#D4D4D4"/>
<circle cx="548" cy="345" r="5" fill="#D4D4D4"/>
<circle cx="558" cy="345" r="5" fill="#D4D4D4"/>
<circle cx="568" cy="345" r="5" fill="#D4D4D4"/>
<circle cx="578" cy="345" r="5" fill="#D4D4D4"/>
<circle cx="588" cy="345" r="5" fill="#D4D4D4"/>
<circle cx="8" cy="1" r="5" fill="#D4D4D4"/>
<circle cx="18" cy="1" r="5" fill="#D4D4D4"/>
<circle cx="28" cy="1" r="5" fill="#D4D4D4"/>
<circle cx="38" cy="1" r="5" fill="#D4D4D4"/>
<circle cx="48" cy="1" r="5" fill="#D4D4D4"/>
<circle cx="58" cy="1" r="5" fill="#D4D4D4"/>
<circle cx="68" cy="1" r="5" fill="#D4D4D4"/>
<circle cx="78" cy="1" r="5" fill="#D4D4D4"/>
<circle cx="88" cy="1" r="5" fill="#D4D4D4"/>
<circle cx="98" cy="1" r="5" fill="#D4D4D4"/>
<circle cx="108" cy="1" r="5" fill="#D4D4D4"/>
<circle cx="118" cy="1" r="5" fill="#D4D4D4"/>
<circle cx="128" cy="1" r="5" fill="#D4D4D4"/>
<circle cx="138" cy="1" r="5" fill="#D4D4D4"/>
<circle cx="148" cy="1" r="5" fill="#D4D4D4"/>
<circle cx="158" cy="1" r="5" fill="#D4D4D4"/>
<circle cx="168" cy="1" r="5" fill="#D4D4D4"/>
<circle cx="178" cy="1" r="5" fill="#D4D4D4"/>
<circle cx="188" cy="1" r="5" fill="#D4D4D4"/>
<circle cx="198" cy="1" r="5" fill="#D4D4D4"/>
<circle cx="208" cy="1" r="5" fill="#D4D4D4"/>
<circle cx="218" cy="1" r="5" fill="#D4D4D4"/>
<circle cx="228" cy="1" r="5" fill="#D4D4D4"/>
<circle cx="238" cy="1" r="5" fill="#D4D4D4"/>
<circle cx="248" cy="1" r="5" fill="#D4D4D4"/>
<circle cx="258" cy="1" r="5" fill="#D4D4D4"/>
<circle cx="268" cy="1" r="5" fill="#D4D4D4"/>
<circle cx="278" cy="1" r="5" fill="#D4D4D4"/>
<circle cx="288" cy="1" r="5" fill="#D4D4D4"/>
<circle cx="298" cy="1" r="5" fill="#D4D4D4"/>
<circle cx="308" cy="1" r="5" fill="#D4D4D4"/>
<circle cx="318" cy="1" r="5" fill="#D4D4D4"/>
<circle cx="328" cy="1" r="5" fill="#D4D4D4"/>
<circle cx="338" cy="1" r="5" fill="#D4D4D4"/>
<circle cx="348" cy="1" r="5" fill="#D4D4D4"/>
<circle cx="358" cy="1" r="5" fill="#D4D4D4"/>
<circle cx="368" cy="1" r="5" fill="#D4D4D4"/>
<circle cx="378" cy="1" r="5" fill="#D4D4D4"/>
<circle cx="388" cy="1" r="5" fill="#D4D4D4"/>
<circle cx="398" cy="1" r="5" fill="#D4D4D4"/>
<circle cx="408" cy="1" r="5" fill="#D4D4D4"/>
<circle cx="418" cy="1" r="5" fill="#D4D4D4"/>
<circle cx="428" cy="1" r="5" fill="#D4D4D4"/>
<circle cx="438" cy="1" r="5" fill="#D4D4D4"/>
<circle cx="448" cy="1" r="5" fill="#D4D4D4"/>
<circle cx="458" cy="1" r="5" fill="#D4D4D4"/>
<circle cx="468" cy="1" r="5" fill="#D4D4D4"/>
<circle cx="478" cy="1" r="5" fill="#D4D4D4"/>
<circle cx="488" cy="1" r="5" fill="#D4D4D4"/>
<circle cx="498" cy="1" r="5" fill="#D4D4D4"/>
<circle cx="508" cy="1" r="5" fill="#D4D4D4"/>
<circle cx="518" cy="1" r="5" fill="#D4D4D4"/>
<circle cx="528" cy="1" r="5" fill="#D4D4D4"/>
<circle cx="538" cy="1" r="5" fill="#D4D4D4"/>
<circle cx="548" cy="1" r="5" fill="#D4D4D4"/>
<circle cx="558" cy="1" r="5" fill="#D4D4D4"/>
<circle cx="568" cy="1" r="5" fill="#D4D4D4"/>
<circle cx="578" cy="1" r="5" fill="#D4D4D4"/>
<circle cx="588" cy="1" r="5" fill="#D4D4D4"/>
</g>
<defs>
<clipPath id="clip0_13_176">
<rect width="595" height="345" fill="white"/>
</clipPath>
</defs>
</svg>
