<svg width="590" height="6" viewBox="0 0 590 6" fill="none" xmlns="http://www.w3.org/2000/svg">
<circle cx="5" cy="1" r="5" fill="#D4D4D4"/>
<circle cx="15" cy="1" r="5" fill="#D4D4D4"/>
<circle cx="25" cy="1" r="5" fill="#D4D4D4"/>
<circle cx="35" cy="1" r="5" fill="#D4D4D4"/>
<circle cx="45" cy="1" r="5" fill="#D4D4D4"/>
<circle cx="55" cy="1" r="5" fill="#D4D4D4"/>
<circle cx="65" cy="1" r="5" fill="#D4D4D4"/>
<circle cx="75" cy="1" r="5" fill="#D4D4D4"/>
<circle cx="85" cy="1" r="5" fill="#D4D4D4"/>
<circle cx="95" cy="1" r="5" fill="#D4D4D4"/>
<circle cx="105" cy="1" r="5" fill="#D4D4D4"/>
<circle cx="115" cy="1" r="5" fill="#D4D4D4"/>
<circle cx="125" cy="1" r="5" fill="#D4D4D4"/>
<circle cx="135" cy="1" r="5" fill="#D4D4D4"/>
<circle cx="145" cy="1" r="5" fill="#D4D4D4"/>
<circle cx="155" cy="1" r="5" fill="#D4D4D4"/>
<circle cx="165" cy="1" r="5" fill="#D4D4D4"/>
<circle cx="175" cy="1" r="5" fill="#D4D4D4"/>
<circle cx="185" cy="1" r="5" fill="#D4D4D4"/>
<circle cx="195" cy="1" r="5" fill="#D4D4D4"/>
<circle cx="205" cy="1" r="5" fill="#D4D4D4"/>
<circle cx="215" cy="1" r="5" fill="#D4D4D4"/>
<circle cx="225" cy="1" r="5" fill="#D4D4D4"/>
<circle cx="235" cy="1" r="5" fill="#D4D4D4"/>
<circle cx="245" cy="1" r="5" fill="#D4D4D4"/>
<circle cx="255" cy="1" r="5" fill="#D4D4D4"/>
<circle cx="265" cy="1" r="5" fill="#D4D4D4"/>
<circle cx="275" cy="1" r="5" fill="#D4D4D4"/>
<circle cx="285" cy="1" r="5" fill="#D4D4D4"/>
<circle cx="295" cy="1" r="5" fill="#D4D4D4"/>
<circle cx="305" cy="1" r="5" fill="#D4D4D4"/>
<circle cx="315" cy="1" r="5" fill="#D4D4D4"/>
<circle cx="325" cy="1" r="5" fill="#D4D4D4"/>
<circle cx="335" cy="1" r="5" fill="#D4D4D4"/>
<circle cx="345" cy="1" r="5" fill="#D4D4D4"/>
<circle cx="355" cy="1" r="5" fill="#D4D4D4"/>
<circle cx="365" cy="1" r="5" fill="#D4D4D4"/>
<circle cx="375" cy="1" r="5" fill="#D4D4D4"/>
<circle cx="385" cy="1" r="5" fill="#D4D4D4"/>
<circle cx="395" cy="1" r="5" fill="#D4D4D4"/>
<circle cx="405" cy="1" r="5" fill="#D4D4D4"/>
<circle cx="415" cy="1" r="5" fill="#D4D4D4"/>
<circle cx="425" cy="1" r="5" fill="#D4D4D4"/>
<circle cx="435" cy="1" r="5" fill="#D4D4D4"/>
<circle cx="445" cy="1" r="5" fill="#D4D4D4"/>
<circle cx="455" cy="1" r="5" fill="#D4D4D4"/>
<circle cx="465" cy="1" r="5" fill="#D4D4D4"/>
<circle cx="475" cy="1" r="5" fill="#D4D4D4"/>
<circle cx="485" cy="1" r="5" fill="#D4D4D4"/>
<circle cx="495" cy="1" r="5" fill="#D4D4D4"/>
<circle cx="505" cy="1" r="5" fill="#D4D4D4"/>
<circle cx="515" cy="1" r="5" fill="#D4D4D4"/>
<circle cx="525" cy="1" r="5" fill="#D4D4D4"/>
<circle cx="535" cy="1" r="5" fill="#D4D4D4"/>
<circle cx="545" cy="1" r="5" fill="#D4D4D4"/>
<circle cx="555" cy="1" r="5" fill="#D4D4D4"/>
<circle cx="565" cy="1" r="5" fill="#D4D4D4"/>
<circle cx="575" cy="1" r="5" fill="#D4D4D4"/>
<circle cx="585" cy="1" r="5" fill="#D4D4D4"/>
</svg>
